<svg xmlns="http://www.w3.org/2000/svg" width="64" height="64" viewBox="0 0 64 64"><defs><style>.a{fill:#fff;}.b{fill:#cf3dc4;}.c{fill:none;opacity:0;}</style></defs><g transform="translate(-620 -188)"><g transform="translate(620 188)"><g transform="translate(16 10.667)"><path class="a" d="M32,2H0A2,2,0,0,1-2,0,2,2,0,0,1,0-2H32a2,2,0,0,1,2,2A2,2,0,0,1,32,2Z" transform="translate(0 21.333)"/><path class="a" d="M18.667,44.667H8c-3.2,0-5.7-.87-7.414-2.586S-2,37.871-2,34.667V8C-2,4.8-1.13,2.3.586.586S4.8-2,8-2H18.667a2,2,0,0,1,2,2,2,2,0,0,1-2,2H8c-2.1,0-3.647.476-4.586,1.414S2,5.9,2,8V34.667c0,2.1.476,3.647,1.414,4.586S5.9,40.667,8,40.667H18.667a2,2,0,0,1,0,4Z" transform="translate(13.333)"/></g><path class="b" d="M5.333-2A7.333,7.333,0,1,1-2,5.333,7.342,7.342,0,0,1,5.333-2Zm0,10.667A3.333,3.333,0,1,0,2,5.333,3.337,3.337,0,0,0,5.333,8.667Z" transform="translate(48 26.667)"/><path class="b" d="M5.333-2A7.333,7.333,0,1,1-2,5.333,7.342,7.342,0,0,1,5.333-2Zm0,10.667A3.333,3.333,0,1,0,2,5.333,3.337,3.337,0,0,0,5.333,8.667Z" transform="translate(48 5.333)"/><path class="b" d="M5.333-2A7.333,7.333,0,1,1-2,5.333,7.342,7.342,0,0,1,5.333-2Zm0,10.667A3.333,3.333,0,1,0,2,5.333,3.337,3.337,0,0,0,5.333,8.667Z" transform="translate(48 48)"/><path class="b" d="M5.333-2A7.333,7.333,0,1,1-2,5.333,7.342,7.342,0,0,1,5.333-2Zm0,10.667A3.333,3.333,0,1,0,2,5.333,3.337,3.337,0,0,0,5.333,8.667Z" transform="translate(5.333 26.667)"/><path class="c" d="M0,0H64V64H0Z"/></g></g></svg>