<svg xmlns="http://www.w3.org/2000/svg" width="65" height="65" viewBox="0 0 65 65"><defs><style>.a,.c{fill:none;}.a{opacity:0;}.b{fill:#fff;}.d{fill:#cf3dc4;}</style></defs><g transform="translate(-300 -188)"><g transform="translate(300 188)"><path class="a" d="M0,0H65V65H0Z" transform="translate(65 65) rotate(180)"/><path class="b" d="M28.5,2.5A26.008,26.008,0,0,0,18.38,52.458,26.007,26.007,0,0,0,38.62,4.542,25.835,25.835,0,0,0,28.5,2.5m0-2.5A28.5,28.5,0,1,1,0,28.5,28.5,28.5,0,0,1,28.5,0Z" transform="translate(4 4)"/><g transform="translate(11.451 11.451)"><path class="c" d="M0,0H42.1V42.1H0Z"/><path class="a" d="M0,0H42.1V42.1H0Z"/></g></g><g transform="translate(318.895 201.736)"><path class="d" d="M3.8-2.5a1.25,1.25,0,0,0-.87.352,19.316,19.316,0,0,0-4.477,6.18,11.3,11.3,0,0,0-.9,5.679A11.844,11.844,0,0,0-.981,14.178a16.555,16.555,0,0,0,2.508,3.364A21.262,21.262,0,0,0,5.513,20.81q.048.029.1.055a1.451,1.451,0,0,0,.653.158,1.393,1.393,0,0,0,.772-.234c1.1-.728,4.738-3.4,5.4-7.362a8.427,8.427,0,0,0-1.941-6.669C5.693.563,5.073-1.34,5.026-1.5A1.25,1.25,0,0,0,4.2-2.434,1.249,1.249,0,0,0,3.8-2.5ZM6.235,18.292C4.622,17.169.529,13.91.045,9.442c-.3-2.774.836-5.627,3.382-8.5A61.315,61.315,0,0,0,8.515,8.286a6.036,6.036,0,0,1,1.453,4.729C9.555,15.493,7.371,17.433,6.235,18.292Z" transform="translate(2.502 16.505)"/><path class="d" d="M2.627-2.5h0a2.26,2.26,0,0,0-1.606.672A1.25,1.25,0,0,0,.9-1.694,18.429,18.429,0,0,0-2.5,8.879a8.976,8.976,0,0,0,1.378,4.469,37.051,37.051,0,0,0,2.814,3.988c2.2,2.847,4.471,5.79,4.232,8.977a13.086,13.086,0,0,1-1.94,5.366c-.214.374-.4.7-.525.982a1.769,1.769,0,0,0-.019,1.628,1.522,1.522,0,0,0,1.4.74,5.014,5.014,0,0,0,1.244-.207l.025-.007a12.286,12.286,0,0,0,5.2-3.163,14.178,14.178,0,0,0,3.474-5.591,12.653,12.653,0,0,0,.482-6.083,14.343,14.343,0,0,0-2.9-6.42C6.93,6.429,5.121.693,4.693-.908a2.082,2.082,0,0,0-.8-1.183A2.141,2.141,0,0,0,2.627-2.5ZM6.708,31.92a14.321,14.321,0,0,0,1.7-5.38l0-.025A10.558,10.558,0,0,0,7,20.661a35.437,35.437,0,0,0-3.336-4.854C1.78,13.363,0,11.054,0,8.879A16.27,16.27,0,0,1,2.474.426,37.211,37.211,0,0,0,4.662,5.9a54.784,54.784,0,0,0,5.721,9.179l0,0a10.633,10.633,0,0,1,2.025,10.2A11.494,11.494,0,0,1,6.708,31.92Z" transform="translate(11.767 2.5)"/></g></g></svg>