<svg xmlns="http://www.w3.org/2000/svg" width="64" height="64" viewBox="0 0 64 64"><defs><style>.a{fill:#cf3dc4;}.b{fill:#fff;}.c{fill:none;opacity:0;}</style></defs><g transform="translate(-172 -318)"><g transform="translate(172 318)"><g transform="translate(17.385 33.227)"><path class="a" d="M0,10.133a1.994,1.994,0,0,1-1.414-.586,2,2,0,0,1,0-2.828L6.719-1.414a2,2,0,0,1,2.828,0,2,2,0,0,1,0,2.828L1.414,9.548A1.994,1.994,0,0,1,0,10.133Z"/><path class="a" d="M8.133,10.133a1.994,1.994,0,0,1-1.414-.586L-1.414,1.414a2,2,0,0,1,0-2.828,2,2,0,0,1,2.828,0L9.548,6.719a2,2,0,0,1-1.414,3.414Z" transform="translate(0.081 0.081)"/></g><path class="a" d="M.027,2H0A2,2,0,0,1-2,0,2,2,0,0,1,0-2H.027a2,2,0,0,1,2,2A2,2,0,0,1,.027,2Z" transform="translate(36.08 37.333)"/><path class="a" d="M.027,2H0A2,2,0,0,1-2,0,2,2,0,0,1,0-2H.027a2,2,0,0,1,2,2A2,2,0,0,1,.027,2Z" transform="translate(46.587 37.333)"/><path class="a" d="M0,2.053a2,2,0,0,1-2-2V0A2,2,0,0,1,0-2,2,2,0,0,1,2,0V.053A2,2,0,0,1,0,2.053Z" transform="translate(41.333 42.56)"/><path class="a" d="M0,2.053a2,2,0,0,1-2-2V0A2,2,0,0,1,0-2,2,2,0,0,1,2,0V.053A2,2,0,0,1,0,2.053Z" transform="translate(41.333 32.053)"/><path class="b" d="M-1963.333-2126.667a31.89,31.89,0,0,1-9.113-1.125,15.282,15.282,0,0,1-6.635-3.793,15.271,15.271,0,0,1-3.793-6.635,31.887,31.887,0,0,1-1.125-9.114v-5.333a31.883,31.883,0,0,1,1.125-9.113,15.26,15.26,0,0,1,3.793-6.635,15.281,15.281,0,0,1,6.635-3.794,31.89,31.89,0,0,1,9.113-1.125h3.327a4.682,4.682,0,0,1-.047-.666,4.659,4.659,0,0,1,4.64-4.667h.08a.673.673,0,0,0,.667-.67l.026-2.682a2,2,0,0,1,2.02-1.981,2,2,0,0,1,1.98,2.021l-.026,2.693a.121.121,0,0,1,0,.017,4.681,4.681,0,0,1-1.383,3.253,4.629,4.629,0,0,1-3.282,1.351h-.08a.654.654,0,0,0-.64.667.675.675,0,0,0,.666.666h8.053a31.9,31.9,0,0,1,9.113,1.125,15.281,15.281,0,0,1,6.635,3.794,15.26,15.26,0,0,1,3.793,6.635,31.883,31.883,0,0,1,1.125,9.113v5.333a31.887,31.887,0,0,1-1.125,9.114,15.271,15.271,0,0,1-3.793,6.635,15.282,15.282,0,0,1-6.635,3.793,31.9,31.9,0,0,1-9.113,1.125Zm-12.919-38.919c-2.557,2.556-3.748,6.662-3.748,12.919v5.333c0,6.258,1.191,10.363,3.748,12.919s6.662,3.748,12.919,3.748h16c6.258,0,10.363-1.191,12.919-3.748s3.748-6.662,3.748-12.919v-5.333c0-6.257-1.191-10.363-3.748-12.919s-6.662-3.748-12.919-3.748h-16C-1969.591-2169.333-1973.7-2168.142-1976.252-2165.585Z" transform="translate(1987.333 2187.333)"/><path class="c" d="M0,0H64V64H0Z"/></g></g></svg>