<svg xmlns="http://www.w3.org/2000/svg" width="255" height="255" viewBox="0 0 255 255"><defs><style>.a{fill:#cf3dc4;}.b{fill:#fff;}.c{fill:none;opacity:0;}</style></defs><path class="a" d="M68.293,104.511H33.018a45.277,45.277,0,0,1-15.154-2.272A27.428,27.428,0,0,1,6.405,94.753C.413,88.1-2.5,78.147-2.5,64.318v-30.6A71.007,71.007,0,0,1-1.187,19.05a31.618,31.618,0,0,1,4.63-11.52A21.553,21.553,0,0,1,12.4-.024,31.087,31.087,0,0,1,25.322-2.5c6.231,0,13.532,1.25,22.319,3.822a74.512,74.512,0,0,1,17.709,7.9A82.975,82.975,0,0,1,92.79,36.661a74.5,74.5,0,0,1,7.9,17.7c2.684,9.17,3.932,16.735,3.816,23.131a33.513,33.513,0,0,1-1.275,8.909,22.908,22.908,0,0,1-3.585,7.25,21.928,21.928,0,0,1-5.6,5.208A29.335,29.335,0,0,1,86.8,102.2C81.85,103.755,75.8,104.511,68.293,104.511ZM25.322,4.786c-7.623,0-12.665,2.179-15.866,6.858-3.142,4.592-4.67,11.813-4.67,22.075v30.6c0,11.946,2.3,20.306,7.032,25.559,4.455,4.945,11.389,7.349,21.2,7.349H68.293c13.352,0,21.462-2.523,25.52-7.939,2.2-2.937,3.315-6.836,3.407-11.922.1-5.57-1.085-12.617-3.523-20.948C87.158,34.186,67.825,14.853,45.59,8.313,37.594,5.973,30.774,4.786,25.322,4.786Z" transform="translate(126.357 26.632)"/><path class="b" d="M97.848,195.865A104.336,104.336,0,0,1,81.113,194.5a97.531,97.531,0,0,1-29.544-9.8A101.188,101.188,0,0,1,8.705,141.88a97.936,97.936,0,0,1-9.867-29.542v-.009A101.459,101.459,0,0,1,.225,72.481,99.442,99.442,0,0,1,15.793,38.05,100.834,100.834,0,0,1,42.56,12.084,99.145,99.145,0,0,1,77.569-2.426a3.643,3.643,0,0,1,1.456,7.139c-48.937,9.979-81,56.74-72.994,106.458C12.351,149.79,43.7,181.1,82.275,187.309c49.874,8.1,96.679-24.1,106.562-73.3a3.643,3.643,0,1,1,7.143,1.435,99.477,99.477,0,0,1-14.448,35.164,100.507,100.507,0,0,1-42.322,36.31,99.638,99.638,0,0,1-41.363,8.949Z" transform="translate(20.091 41.463)"/><path class="c" d="M0,0H255V255H0Z"/></svg>