<svg xmlns="http://www.w3.org/2000/svg" width="64" height="64" viewBox="0 0 64 64"><defs><style>.a,.c{fill:none;}.a{opacity:0.58;}.b,.d{fill:#cf3dc4;}.c{stroke:#000;stroke-linecap:round;stroke-linejoin:round;stroke-width:4px;opacity:0.4;}.d{opacity:0;}.e{fill:#fff;}</style></defs><path class="a" d="M0,0H64V64H0Z"/><path class="b" d="M0,3.027a3,3,0,0,1-3-3A3.011,3.011,0,0,1,0-2.987,2.989,2.989,0,0,1,3,0V.027A3,3,0,0,1,0,3.027Z" transform="translate(32 8.533)"/><path class="b" d="M0,3.027a3,3,0,0,1-3-3A3.011,3.011,0,0,1,0-2.987,2.989,2.989,0,0,1,3,0V.027A3,3,0,0,1,0,3.027Z" transform="translate(32 20.533)"/><path class="b" d="M0,3.027a3,3,0,0,1-3-3A3.011,3.011,0,0,1,0-2.987,2.989,2.989,0,0,1,3,0V.027A3,3,0,0,1,0,3.027Z" transform="translate(32 31.2)"/><path class="b" d="M0,3.027a3,3,0,0,1-3-3A3.011,3.011,0,0,1,0-2.987,2.989,2.989,0,0,1,3,0V.027A3,3,0,0,1,0,3.027Z" transform="translate(9.333 20.533)"/><path class="b" d="M0,3.027a3,3,0,0,1-3-3A3.011,3.011,0,0,1,0-2.987,2.989,2.989,0,0,1,3,0V.027A3,3,0,0,1,0,3.027Z" transform="translate(54.667 20.533)"/><path class="b" d="M0,3.027a3,3,0,0,1-3-3A3.011,3.011,0,0,1,0-2.987,2.989,2.989,0,0,1,3,0V.027A3,3,0,0,1,0,3.027Z" transform="translate(20.8 25.867)"/><path class="b" d="M0,3.027a3,3,0,0,1-3-3A3.011,3.011,0,0,1,0-2.987,2.989,2.989,0,0,1,3,0V.027A3,3,0,0,1,0,3.027Z" transform="translate(20.667 14.667)"/><path class="b" d="M0,3.027a3,3,0,0,1-3-3A3.011,3.011,0,0,1,0-2.987,2.989,2.989,0,0,1,3,0V.027A3,3,0,0,1,0,3.027Z" transform="translate(43.2 25.867)"/><path class="b" d="M0,3.027a3,3,0,0,1-3-3A3.011,3.011,0,0,1,0-2.987,2.989,2.989,0,0,1,3,0V.027A3,3,0,0,1,0,3.027Z" transform="translate(43.333 14.667)"/><path class="c" d="M0,.01" transform="translate(20.8 36.55)"/><path class="d" d="M6,6V58H58V6H6M0,0H64V64H0Z"/><path class="e" d="M3.591-2A5.582,5.582,0,0,1,9.182,3.591,5.6,5.6,0,0,1,3.591,9.182,5.582,5.582,0,0,1-2,3.591,5.575,5.575,0,0,1-.812.148,2,2,0,0,1-.651-.036,5.589,5.589,0,0,1,3.591-2Zm0,7.182a1.556,1.556,0,0,0,.976-.337A1.59,1.59,0,0,0,3.591,2a1.537,1.537,0,0,0-1.227.6q-.045.058-.094.112A1.588,1.588,0,0,0,3.591,5.182Z" transform="translate(28.409 48.895)"/><path class="e" d="M5.6-2H47.733c2.561,0,4.347.522,5.621,1.644,1.332,1.172,1.979,2.9,1.979,5.279V13.84c0,2.381-.647,4.107-1.979,5.279-1.274,1.121-3.061,1.644-5.621,1.644H5.6c-2.561,0-4.347-.522-5.621-1.644C-1.353,17.948-2,16.221-2,13.84V4.923C-2,2.542-1.353.815-.021-.356,1.253-1.478,3.039-2,5.6-2ZM47.733,16.763a4.87,4.87,0,0,0,2.979-.647c.154-.135.621-.547.621-2.276V4.923c0-1.729-.468-2.141-.621-2.276A4.87,4.87,0,0,0,47.733,2H5.6a4.87,4.87,0,0,0-2.979.647C2.468,2.782,2,3.193,2,4.923V13.84c0,1.729.468,2.141.621,2.276a4.87,4.87,0,0,0,2.979.647Z" transform="translate(5.333 43.104)"/></svg>