<svg xmlns="http://www.w3.org/2000/svg" width="65" height="65" viewBox="0 0 65 65"><defs><style>.a{fill:#cf3dc4;}.b{fill:#fff;}.c{fill:none;opacity:0;}</style></defs><g transform="translate(-428 -444)"><g transform="translate(428 444)"><g transform="translate(24.479 19.063)"><path class="a" d="M8.365,18.985H3.273a5.633,5.633,0,0,1-4.1-1.771A6.068,6.068,0,0,1-2.5,13a1.25,1.25,0,0,1,1.25-1.25A1.25,1.25,0,0,1,0,13a3.39,3.39,0,0,0,3.273,3.49H8.365a2.8,2.8,0,0,0,2.677-2.894c0-1.776-.6-2.3-1.846-2.748L1.047,8,1.039,8a5.3,5.3,0,0,1-2.5-1.648A5.4,5.4,0,0,1-2.473,2.894,5.3,5.3,0,0,1,2.7-2.5H7.8a5.633,5.633,0,0,1,4.1,1.771A6.068,6.068,0,0,1,13.569,3.49a1.25,1.25,0,1,1-2.5,0A3.39,3.39,0,0,0,7.8,0H2.7A2.8,2.8,0,0,0,.027,2.894c0,1.787.57,2.293,1.846,2.748l8.149,2.843.007,0a5.36,5.36,0,0,1,2.506,1.661,5.4,5.4,0,0,1,1.006,3.444,5.479,5.479,0,0,1-1.495,3.8A5.042,5.042,0,0,1,8.365,18.985Z" transform="translate(2.5 5.181)"/><path class="a" d="M-1.25,24.375a1.25,1.25,0,0,1-1.25-1.25V-1.25A1.25,1.25,0,0,1-1.25-2.5,1.25,1.25,0,0,1,0-1.25V23.125A1.25,1.25,0,0,1-1.25,24.375Z" transform="translate(9.271 2.5)"/></g><path class="b" d="M25.833,54.167A28.2,28.2,0,0,1,9.994,49.325,28.432,28.432,0,0,1-.272,36.859,28.282,28.282,0,0,1,2.342,9.994,28.432,28.432,0,0,1,14.807-.272,28.136,28.136,0,0,1,25.833-2.5a1.25,1.25,0,0,1,1.25,1.25A1.25,1.25,0,0,1,25.833,0,25.833,25.833,0,1,0,51.667,25.833a1.25,1.25,0,0,1,2.5,0,28.2,28.2,0,0,1-4.842,15.839A28.432,28.432,0,0,1,36.859,51.938,28.136,28.136,0,0,1,25.833,54.167Z" transform="translate(6.667 6.667)"/><path class="a" d="M9.583,10.833a1.25,1.25,0,0,1-1.25-1.25V0H-1.25A1.25,1.25,0,0,1-2.5-1.25,1.25,1.25,0,0,1-1.25-2.5H9.583a1.25,1.25,0,0,1,1.25,1.25V9.583A1.25,1.25,0,0,1,9.583,10.833Z" transform="translate(50 6.667)"/><path class="a" d="M-1.25,13.542a1.246,1.246,0,0,1-.884-.366,1.25,1.25,0,0,1,0-1.768L11.408-2.134a1.25,1.25,0,0,1,1.768,0,1.25,1.25,0,0,1,0,1.768L-.366,13.176A1.246,1.246,0,0,1-1.25,13.542Z" transform="translate(47.292 6.667)"/><path class="c" d="M0,0H65V65H0Z"/></g></g></svg>