<svg xmlns="http://www.w3.org/2000/svg" width="64" height="64" viewBox="0 0 64 64"><defs><style>.a{fill:#cf3dc4;}.b{fill:#fff;}.c{fill:none;opacity:0;}</style></defs><path class="a" d="M0,14.747a2,2,0,0,1-2-2V0A2,2,0,0,1,0-2,2,2,0,0,1,2,0V12.747A2,2,0,0,1,0,14.747Z" transform="translate(32 45.92)"/><path class="a" d="M53.333,2H0A2,2,0,0,1-2,0,2,2,0,0,1,0-2H53.333a2,2,0,0,1,2,2A2,2,0,0,1,53.333,2Z" transform="translate(5.333 34.667)"/><path class="b" d="M11.84-2H41.467a27.586,27.586,0,0,1,6.322.573A9.316,9.316,0,0,1,52.373.954,9.29,9.29,0,0,1,54.76,5.532a27.431,27.431,0,0,1,.574,6.308V28.72c0,5.642-.857,8.8-2.957,10.9C49.784,42.2,45.614,42.56,41.493,42.56H11.684a26.671,26.671,0,0,1-6.236-.578,9.187,9.187,0,0,1-4.53-2.393,9.33,9.33,0,0,1-2.351-4.565A27.56,27.56,0,0,1-2,28.747V11.84a27.457,27.457,0,0,1,.573-6.308A9.3,9.3,0,0,1,.956.956,9.3,9.3,0,0,1,5.532-1.427,27.457,27.457,0,0,1,11.84-2ZM41.493,38.56c4.4,0,6.81-.531,8.057-1.776s1.783-3.659,1.783-8.064V11.84c0-4.4-.534-6.8-1.786-8.054S45.877,2,41.467,2H11.84c-4.4,0-6.805.534-8.056,1.784S2,7.444,2,11.84V28.747c0,4.378.527,6.78,1.764,8.032s3.6,1.781,7.92,1.781h29.81Z" transform="translate(5.333 5.333)"/><path class="b" d="M24,2H0A2,2,0,0,1-2,0,2,2,0,0,1,0-2H24a2,2,0,0,1,2,2A2,2,0,0,1,24,2Z" transform="translate(20 58.667)"/><path class="c" d="M0,0H64V64H0Z"/></svg>