<svg xmlns="http://www.w3.org/2000/svg" width="65" height="65" viewBox="0 0 65 65"><defs><style>.a{fill:#fff;}.b{fill:#cf3dc4;}.c{fill:none;opacity:0;}</style></defs><path class="a" d="M22.021-2.5a13.774,13.774,0,0,1,4.565.705l.01,0L40.112,3.274A10.015,10.015,0,0,1,44.7,7.01a10.064,10.064,0,0,1,1.884,5.613V32.746a13.132,13.132,0,0,1-1.511,5.7A13.238,13.238,0,0,1,41.4,43.064L29.752,51.757a12.866,12.866,0,0,1-7.71,2.4,12.866,12.866,0,0,1-7.71-2.4L2.688,43.065A13.239,13.239,0,0,1-.989,38.444a13.132,13.132,0,0,1-1.511-5.7V12.623A10.013,10.013,0,0,1-.615,7.033,10.028,10.028,0,0,1,3.973,3.3L17.484-1.79h0A13.409,13.409,0,0,1,22.021-2.5Zm3.7,3.052A11.425,11.425,0,0,0,22.021,0a11.052,11.052,0,0,0-3.659.551L4.851,5.641h0A8.134,8.134,0,0,0,0,12.623V32.746a11.9,11.9,0,0,0,4.184,8.315l11.645,8.693,0,0a10.36,10.36,0,0,0,6.209,1.9,10.36,10.36,0,0,0,6.209-1.9l0,0L39.9,41.061a11.9,11.9,0,0,0,4.183-8.315V12.623a8.155,8.155,0,0,0-4.848-7.008Z" transform="translate(10.485 6.66)"/><path class="b" d="M5.277,17.108A1.727,1.727,0,0,1,4.052,16.6l-6.044-6.044a1.733,1.733,0,0,1,0-2.45,1.733,1.733,0,0,1,2.45,0l4.819,4.819L20.195-1.993a1.733,1.733,0,0,1,2.45,0,1.733,1.733,0,0,1,0,2.45L6.5,16.6A1.727,1.727,0,0,1,5.277,17.108Z" transform="translate(22.187 23.381)"/><path class="c" d="M0,0H65V65H0Z" transform="translate(65 65) rotate(180)"/></svg>