<svg xmlns="http://www.w3.org/2000/svg" width="32" height="32" viewBox="0 0 32 32"><defs><style>.a{fill:#fff;}.b{fill:#cf3dc4;}.c{fill:none;opacity:0;}</style></defs><path class="a" d="M14,29.5a15.318,15.318,0,0,1-6.022-1.224A15.636,15.636,0,0,1-.276,20.022a15.427,15.427,0,0,1,0-12.045A15.636,15.636,0,0,1,7.978-.276a15.427,15.427,0,0,1,12.045,0,15.636,15.636,0,0,1,8.253,8.253,15.427,15.427,0,0,1,0,12.045,15.636,15.636,0,0,1-8.253,8.253A15.318,15.318,0,0,1,14,29.5Zm0-28A12.5,12.5,0,1,0,26.5,14,12.514,12.514,0,0,0,14,1.5Z" transform="translate(2 2)"/><path class="b" d="M2.83,7.16a1.5,1.5,0,0,1-1.061-.439l-2.83-2.83a1.5,1.5,0,0,1,0-2.121,1.5,1.5,0,0,1,2.121,0l1.77,1.77,4.609-4.6a1.5,1.5,0,0,1,2.121,0,1.5,1.5,0,0,1,0,2.121L3.89,6.722A1.5,1.5,0,0,1,2.83,7.16Z" transform="translate(11.75 13.17)"/><path class="c" d="M0,0H32V32H0Z"/></svg>