<svg xmlns="http://www.w3.org/2000/svg" width="67" height="62.197" viewBox="0 0 67 62.197"><defs><style>.a{fill:#cf3dc4;}.b{fill:#fff;}</style></defs><g transform="translate(-0.5 -2)"><g transform="translate(7.087 27.5)"><path class="a" d="M-1604.168-2155.884a11.466,11.466,0,0,1-2.826-3.638,10.261,10.261,0,0,1-1.056-4.535v-14.414q-.038-.434-.038-.875a10.753,10.753,0,0,1,3.84-8.137,12.767,12.767,0,0,1,2.852-1.885,14.277,14.277,0,0,1,6.3-1.436,13.868,13.868,0,0,1,9.075,3.276l.009.007a11.439,11.439,0,0,1,2.795,3.636,10.338,10.338,0,0,1,1.045,4.533v15.294a10.767,10.767,0,0,1-3.863,8.171,13.753,13.753,0,0,1-9.06,3.281A13.809,13.809,0,0,1-1604.168-2155.884Zm9.075.279c5.211,0,9.5-3.439,9.894-7.792a11.43,11.43,0,0,1-.878.783,14.368,14.368,0,0,1-9.016,2.971,16.287,16.287,0,0,1-2.193-.147,13.866,13.866,0,0,1-6.85-2.824,11.409,11.409,0,0,1-.884-.788C-1604.625-2159.046-1600.324-2155.6-1595.093-2155.6Zm0-7.04c5.657,0,9.923-3.4,9.923-7.908v-1.684a12.164,12.164,0,0,1-3.2,2.279,15.266,15.266,0,0,1-6.759,1.521,15.209,15.209,0,0,1-6.762-1.534,12.3,12.3,0,0,1-3.157-2.234v1.653C-1605.05-2166.044-1600.77-2162.644-1595.093-2162.644Zm-9-13.127c1.647,2.674,5.079,4.334,8.958,4.334,3.9,0,7.328-1.66,8.955-4.331a6.867,6.867,0,0,0,1-3.577,7.566,7.566,0,0,0-2.852-5.856.166.166,0,0,1-.019-.015,10.873,10.873,0,0,0-7.117-2.549,11.457,11.457,0,0,0-4.085.735c-3.421,1.339-5.8,4.278-5.8,7.68v.725A6.9,6.9,0,0,0-1604.089-2175.772Z" transform="translate(1606.587 2189.302)"/></g><path class="b" d="M-1562.7-2105.9a1.5,1.5,0,0,1-1.5-1.5,1.5,1.5,0,0,1,1.5-1.5h8c8.808,0,14.5-5.691,14.5-14.5v-3.14h-4.772a8.706,8.706,0,0,1-5.612-2.05,7.778,7.778,0,0,1-2.794-5.3,7.912,7.912,0,0,1,.192-2.634,7.93,7.93,0,0,1,2.161-3.778,7.856,7.856,0,0,1,5.669-2.36h5.155v-3.137c0-7.971-4.7-13.469-12.273-14.35l-.073-.011a13.058,13.058,0,0,0-2.154-.14h-28.8a15.579,15.579,0,0,0-2.363.175c-.014,0-.028,0-.042.005-7.46.936-12.1,6.423-12.1,14.32v6.4a1.5,1.5,0,0,1-1.5,1.5,1.5,1.5,0,0,1-1.5-1.5v-6.4a17.8,17.8,0,0,1,4-11.757,16.441,16.441,0,0,1,10.7-5.537,18.616,18.616,0,0,1,2.8-.206h28.8a16.4,16.4,0,0,1,2.609.174c9.047,1.068,14.891,7.865,14.891,17.326v3.408a4.752,4.752,0,0,1,3.2,4.493v6.592a4.752,4.752,0,0,1-3.2,4.493v3.414a19.693,19.693,0,0,1-1.249,7.088,15.875,15.875,0,0,1-3.59,5.572,15.859,15.859,0,0,1-5.572,3.589,19.671,19.671,0,0,1-7.088,1.25Zm12.31-28.269a.129.129,0,0,0,0,.018,5.358,5.358,0,0,0,5.417,4.608h6.242a1.783,1.783,0,0,0,1.73-1.764v-6.592a1.783,1.783,0,0,0-1.686-1.761h-6.67a4.884,4.884,0,0,0-3.533,1.466l-.027.027a4.944,4.944,0,0,0-1.4,2.557A4.909,4.909,0,0,0-1550.39-2134.172Z" transform="translate(1601.5 2165.302)"/></g></svg>