<?xml version="1.0" encoding="UTF-8"?><svg xmlns="http://www.w3.org/2000/svg" viewBox="0 0 1164 541"><defs><style>.d{fill:#fff;}.e{stroke-width:7.78px;}.e,.f,.g,.h,.i{fill:none;stroke-miterlimit:10;}.e,.g,.i{stroke:#fff;}.j{fill:#cf3dc4;}.f,.h{stroke:#cf3dc4;}.f,.i{stroke-width:8.08px;}.g{stroke-width:4.87px;}.h{stroke-width:7.78px;}</style></defs><g id="a"/><g id="b"/><g id="c"><path class="j" d="M316.68,155.25c-8.66,0-15.69-7.02-15.69-15.69,0-8.68,7.01-15.73,15.69-15.76,8.63-.03,15.66,6.94,15.69,15.57v.19c0,8.66-7.02,15.69-15.69,15.69Z"/><path class="j" d="M316.68,211.03c-8.66,0-15.69-7.02-15.69-15.69,0-8.68,7.01-15.73,15.69-15.76,8.63-.03,15.66,6.94,15.69,15.57v.19c0,8.66-7.02,15.69-15.69,15.69Z"/><path class="j" d="M198.14,155.25c-8.66,0-15.69-7.02-15.69-15.69,0-8.68,7.01-15.73,15.69-15.76,8.63-.03,15.66,6.94,15.69,15.57v.19c0,8.66-7.02,15.69-15.69,15.69Z"/><path class="j" d="M435.22,155.25c-8.66,0-15.69-7.02-15.69-15.69,0-8.68,7.01-15.73,15.69-15.76,8.63-.03,15.66,6.94,15.69,15.57v.19c0,8.66-7.02,15.69-15.69,15.69Z"/><path class="j" d="M258.11,183.14c-8.66,0-15.69-7.02-15.69-15.69,0-8.68,7.01-15.73,15.69-15.76,8.63-.03,15.66,6.94,15.69,15.57v.19c0,8.66-7.02,15.69-15.69,15.69Z"/><path class="j" d="M375.25,183.14c-8.66,0-15.69-7.02-15.69-15.69,0-8.68,7.01-15.73,15.69-15.76,8.63-.03,15.66,6.94,15.69,15.57v.19c0,8.66-7.02,15.69-15.69,15.69Z"/><path class="d" d="M316.68,277.28c16.12-.03,29.21,13.02,29.24,29.14,0,.03,0,.06,0,.09-.03,16.14-13.1,29.21-29.24,29.24-16.12,.03-29.21-13.02-29.24-29.14,0-.03,0-.06,0-.09,0-6.53,2.18-12.87,6.21-18.01,.26-.34,.54-.66,.84-.96,5.54-6.5,13.64-10.25,22.18-10.27Zm0,37.56c1.85,.01,3.65-.61,5.1-1.76,3.62-2.82,4.28-8.04,1.46-11.67-1.58-2.02-4-3.21-6.56-3.21-2.51-.01-4.89,1.15-6.42,3.14-.16,.2-.32,.4-.49,.59-2.55,3.81-1.52,8.97,2.29,11.52,1.37,.91,2.97,1.4,4.61,1.4Z"/><path class="i" d="M206.51,247h220.34c13.39,0,22.73,2.73,29.4,8.6,6.97,6.13,10.35,15.17,10.35,27.61v46.63c0,12.45-3.38,21.48-10.35,27.61-6.66,5.86-16.01,8.6-29.4,8.6H206.51c-13.39,0-22.73-2.73-29.4-8.6-6.97-6.12-10.35-15.16-10.35-27.61v-46.63c0-12.45,3.38-21.48,10.35-27.61,6.66-5.87,16-8.6,29.4-8.6Z"/><polyline class="i" points="177.12 357.44 131.2 403.35 409.48 403.35 455.82 357.02"/><polyline class="i" points="177.12 255.59 124.26 323.22 123.84 403.35"/><line class="f" x1="198.14" y1="179.58" x2="198.14" y2="211.03"/><line class="f" x1="434.82" y1="179.58" x2="434.82" y2="211.03"/><line class="f" x1="375.89" y1="195.38" x2="375.89" y2="211.03"/><line class="f" x1="258.03" y1="195.38" x2="258.03" y2="211.03"/><path class="e" d="M697.84,288.45v-31.14c-.59-20.79,6.32-41.09,19.46-57.21,13.32-15.25,31.93-24.87,52.07-26.94,4.51-.68,9.06-1.01,13.62-1h140.14c4.25-.06,8.49,.23,12.7,.85,44.02,5.2,72.46,38.27,72.46,84.31v16.58c9.32,3.22,15.57,12,15.57,21.86v32.08c0,9.86-6.25,18.64-15.57,21.86v16.61c.11,11.77-1.95,23.46-6.08,34.49-3.85,10.17-9.8,19.41-17.47,27.11-7.71,7.67-16.95,13.62-27.11,17.46-11.02,4.13-22.72,6.19-34.49,6.08h-38.9m76.36-203.99s0-.06,0-.09c-1.84-13.05-13.15-22.67-26.33-22.4h-30.34c-4.65,.14-8.36,3.92-8.41,8.57v32.04c.05,4.57,3.63,8.31,8.2,8.56h32.42c6.45,.06,12.66-2.51,17.17-7.13l.13-.13c3.47-3.36,5.84-7.7,6.8-12.43,.46-2.3,.58-4.65,.35-6.99v-.02Z"/><path class="e" d="M750.01,239.93v-31.14c-.59-20.79,6.32-41.09,19.46-57.21,13.32-15.25,31.93-24.87,52.07-26.94,4.51-.68,9.06-1.01,13.62-1h140.14c4.25-.06,8.49,.23,12.7,.85,44.02,5.2,72.46,38.27,72.46,84.31v16.58c9.32,3.22,15.57,12,15.57,21.86v32.08c0,9.86-6.25,18.64-15.57,21.86v16.61c.11,11.77-1.95,23.46-6.08,34.49-3.85,10.17-9.8,19.41-17.47,27.11-7.71,7.67-16.95,13.62-27.11,17.46-11.02,4.13-22.72,6.19-34.49,6.08h-38.9"/><ellipse class="h" cx="785.88" cy="322.39" rx="67.27" ry="17.39"/><ellipse class="h" cx="785.88" cy="347.11" rx="67.27" ry="17.39"/><ellipse class="h" cx="785.88" cy="371.82" rx="67.27" ry="17.39"/><ellipse class="h" cx="785.88" cy="395.62" rx="67.27" ry="17.39"/><ellipse class="h" cx="785.88" cy="420.33" rx="67.27" ry="17.39"/><g><rect class="g" x="5.73" y="3.72" width="1152.61" height="533.65" rx="53.02" ry="53.02"/><line class="g" x1="585.9" y1=".5" x2="585.9" y2="540.62"/></g></g></svg>