<svg xmlns="http://www.w3.org/2000/svg" xmlns:xlink="http://www.w3.org/1999/xlink" viewBox="0 0 710 675" xmlns:v="https://vecta.io/nano"><rect x="8.2" y="7" width="696" height="563.22" rx="26.9" fill="none" stroke="#10bfbf" stroke-miterlimit="10" stroke-width="8.5"/><g fill="#10bfbf"><path d="M202.1 217.57h-46.02v50H126.5V146.12h29.58v47.58h46.02v-47.58h29.58v121.45H202.1v-50z"/><use xlink:href="#B"/><path d="M418.52 146.12v98.61h38.75v22.84h-68.34V146.12h29.58z"/><use xlink:href="#B" x="218.5"/><path d="M161.62 349.48h-32.7c-4.5-8.13-12.8-12.46-23.87-12.46-19.03 0-31.66 13.49-31.66 34.6 0 22.49 12.8 35.64 34.08 35.64 14.71 0 24.91-7.79 29.41-21.45H99.34v-21.8h64.36v27.51c-6.23 20.93-26.47 41.87-58.48 41.87-36.33 0-61.94-25.43-61.94-61.76s25.43-61.94 61.76-61.94c29.06 0 50.17 14.88 56.57 39.79zm68.16-38.4c29.76 0 44.64 17.13 44.64 38.23 0 15.22-8.3 29.58-26.99 35.12l28.03 48.09h-33.39l-25.26-45.85h-7.09v45.85h-29.58V311.07h49.65zm-1.73 24.57h-18.34v30.1h18.34c11.07 0 16.26-5.71 16.26-15.22 0-9-5.19-14.88-16.26-14.88zm140.48 75.42H323.2l-7.27 21.45h-30.97l43.94-121.45h34.25l43.94 121.45h-31.31l-7.27-21.45zm-22.66-67.3l-14.88 44.46h29.93l-15.05-44.46zm74.55-32.69h34.95l34.08 84.08 33.74-84.08h34.77v121.45h-29.58V359.7l-27.16 72.83h-23.87l-27.33-73.01v73.01h-29.58V311.08zm202.76 122.66c-26.12 0-46.54-12.98-47.4-37.54h31.49c.87 9.34 6.75 13.84 15.05 13.84s14.19-4.33 14.19-11.42c0-22.49-60.72-10.38-60.38-53.46 0-23.01 18.86-35.81 44.29-35.81s44.29 13.15 45.5 36.33h-32.01c-.52-7.79-6.06-12.46-14.01-12.63-7.09-.17-12.46 3.46-12.46 11.07 0 21.11 60.03 11.59 60.03 52.25 0 20.42-15.92 37.37-44.29 37.37z"/></g><path d="M19.7 565.59l213.89 101.5H500.2l189.5-99.84" fill="none" stroke="#10bfbf" stroke-miterlimit="10" stroke-width="8.5"/><defs ><path id="B" d="M310.4,268.78c-34.43,0-62.45-25.78-62.45-62.28s28.03-62.11,62.45-62.11,62.11,25.6,62.11,62.11-27.68,62.28-62.11,62.28Zm0-26.99c19.38,0,32.01-14.01,32.01-35.29s-12.63-35.29-32.01-35.29-32.18,13.67-32.18,35.29,12.46,35.29,32.18,35.29Z"/></defs></svg>