<svg xmlns="http://www.w3.org/2000/svg" xmlns:xlink="http://www.w3.org/1999/xlink" width="325.611" height="325.611" viewBox="0 0 325.611 325.611"><defs><linearGradient id="a" x2="1" y2="1" gradientUnits="objectBoundingBox"><stop offset="0" stop-color="#01bfbf"/><stop offset="0.498" stop-color="#ef9326"/><stop offset="1" stop-color="#cf3dc4"/></linearGradient><linearGradient id="b" x2="1" y2="1" gradientUnits="objectBoundingBox"><stop offset="0" stop-color="#01bfbf"/><stop offset="0.51" stop-color="#ef9326"/><stop offset="1" stop-color="#cf3dc4"/></linearGradient></defs><g transform="translate(-26.121 -30.527)"><g transform="translate(26.121 30.527)"><path d="M260.286,320.152a4.673,4.673,0,0,1-1.618-3.317l-.162-71.514-33.33-17.959a4.811,4.811,0,0,1-2.508-4.449,4.756,4.756,0,0,1,2.589-3.964l33.087-18.364-.162-74.022a4.819,4.819,0,0,1,2.75-4.207,6.356,6.356,0,0,1,5.42,0h.081L301.3,140.478l.4.485a5.733,5.733,0,0,1,1.456,3.317V299.119l.243.081v1.861c.647,2.67-1.456,3.721-4.773,5.42l-.162.081-18.364,8.252-13.753,6.31-.081.081-.728.243-.243.081v-.081a6.287,6.287,0,0,1-1.294.162h0A5.547,5.547,0,0,1,260.286,320.152Zm4.773-4.773,12.135-5.42,17.8-8.171-30.013-13.834Zm3.721-31.955,27.991,12.863V268.135Zm-3.721-4.53,27.667-15.128-27.748-15.047Zm2.427-35.272,29.285,15.856V226.472Zm-37.941-20.467,28.961,15.613-.081-31.631Zm35.352,15.29,28.881-16.908L264.9,207.219Zm2.508-36.323L296.771,216.6V185.862Zm-2.589-5.1,28.152-15.613-28.233-15.128Zm4.368-34.867,27.586,14.8v-29.77Zm-4.449-4.126,27.991-15.209-28.072-14.885ZM179.874,321.528a6.539,6.539,0,0,1-2.184-.4l-.243-.081L143.47,305.51l-.162-.081a4.586,4.586,0,0,1-2.508-4.045V144.361a5.266,5.266,0,0,1,1.456-3.317l.4-.485,35.11-18.2a6.085,6.085,0,0,1,5.42.081,4.46,4.46,0,0,1,2.589,4.126l-.162,73.294,33.815,18.687h0a4.552,4.552,0,0,1,2.265,6.148,4.418,4.418,0,0,1-2.265,2.265l-33.977,18.364-.162,71.514a4.309,4.309,0,0,1-1.537,3.317,5.99,5.99,0,0,1-3.883,1.375Zm-30.418-20.063L178.9,314.651l.081-26.777Zm-2.265-5.258,28.638-13.186-28.638-15.613Zm4.773-32.764,27.02,14.723.081-29.366Zm-4.773-4.045,29.366-15.856-29.366-17.231Zm38.265-20.629,29.609-16.018L185.537,206.41Zm-34.948-17.231,28.638,16.746.081-30.984Zm-3.317-4.773,30.094-14.885L147.11,185.214Zm4.773-35.514,27.263,15.128.081-29.851Zm-4.773-4.045L175.505,162l-28.314-15.209Zm4.773-34.382,27.263,14.723.081-29.447Z" transform="translate(-58.045 -58.946)" fill="url(#a)"/><path d="M351.414,143.769a162.9,162.9,0,1,0,12.7,63.181,162.8,162.8,0,0,0-12.7-63.181ZM201.834,362.194c-85.59,0-155.243-69.653-155.243-155.243S116.244,51.707,201.834,51.707s155.243,69.653,155.243,155.243S287.5,362.194,201.834,362.194Z" transform="translate(-38.505 -44.116)" fill="url(#b)"/></g></g></svg>