<svg xmlns="http://www.w3.org/2000/svg" xmlns:xlink="http://www.w3.org/1999/xlink" width="1005.122" height="325.611" viewBox="0 0 1005.122 325.611"><defs><linearGradient id="a" x2="1" y2="1" gradientUnits="objectBoundingBox"><stop offset="0" stop-color="#01bfbf"/><stop offset="0.498" stop-color="#ef9326"/><stop offset="1" stop-color="#cf3dc4"/></linearGradient><linearGradient id="b" x2="1" y2="1" gradientUnits="objectBoundingBox"><stop offset="0" stop-color="#01bfbf"/><stop offset="0.51" stop-color="#ef9326"/><stop offset="1" stop-color="#cf3dc4"/></linearGradient></defs><g transform="translate(-64.563 -68.527)"><g transform="translate(38.442 38)"><g transform="translate(26.121 30.527)"><path d="M260.286,320.152a4.673,4.673,0,0,1-1.618-3.317l-.162-71.514-33.33-17.959a4.811,4.811,0,0,1-2.508-4.449,4.756,4.756,0,0,1,2.589-3.964l33.087-18.364-.162-74.022a4.819,4.819,0,0,1,2.75-4.207,6.356,6.356,0,0,1,5.42,0h.081L301.3,140.478l.4.485a5.733,5.733,0,0,1,1.456,3.317V299.119l.243.081v1.861c.647,2.67-1.456,3.721-4.773,5.42l-.162.081-18.364,8.252-13.753,6.31-.081.081-.728.243-.243.081v-.081a6.287,6.287,0,0,1-1.294.162h0A5.547,5.547,0,0,1,260.286,320.152Zm4.773-4.773,12.135-5.42,17.8-8.171-30.013-13.834Zm3.721-31.955,27.991,12.863V268.135Zm-3.721-4.53,27.667-15.128-27.748-15.047Zm2.427-35.272,29.285,15.856V226.472Zm-37.941-20.467,28.961,15.613-.081-31.631Zm35.352,15.29,28.881-16.908L264.9,207.219Zm2.508-36.323L296.771,216.6V185.862Zm-2.589-5.1,28.152-15.613-28.233-15.128Zm4.368-34.867,27.586,14.8v-29.77Zm-4.449-4.126,27.991-15.209-28.072-14.885ZM179.874,321.528a6.539,6.539,0,0,1-2.184-.4l-.243-.081L143.47,305.51l-.162-.081a4.586,4.586,0,0,1-2.508-4.045V144.361a5.266,5.266,0,0,1,1.456-3.317l.4-.485,35.11-18.2a6.085,6.085,0,0,1,5.42.081,4.46,4.46,0,0,1,2.589,4.126l-.162,73.294,33.815,18.687h0a4.552,4.552,0,0,1,2.265,6.148,4.418,4.418,0,0,1-2.265,2.265l-33.977,18.364-.162,71.514a4.309,4.309,0,0,1-1.537,3.317,5.99,5.99,0,0,1-3.883,1.375Zm-30.418-20.063L178.9,314.651l.081-26.777Zm-2.265-5.258,28.638-13.186-28.638-15.613Zm4.773-32.764,27.02,14.723.081-29.366Zm-4.773-4.045,29.366-15.856-29.366-17.231Zm38.265-20.629,29.609-16.018L185.537,206.41Zm-34.948-17.231,28.638,16.746.081-30.984Zm-3.317-4.773,30.094-14.885L147.11,185.214Zm4.773-35.514,27.263,15.128.081-29.851Zm-4.773-4.045L175.505,162l-28.314-15.209Zm4.773-34.382,27.263,14.723.081-29.447Z" transform="translate(-58.045 -58.946)" fill="url(#a)"/><path d="M351.414,143.769a162.9,162.9,0,1,0,12.7,63.181,162.8,162.8,0,0,0-12.7-63.181ZM201.834,362.194c-85.59,0-155.243-69.653-155.243-155.243S116.244,51.707,201.834,51.707s155.243,69.653,155.243,155.243S287.5,362.194,201.834,362.194Z" transform="translate(-38.505 -44.116)" fill="url(#b)"/></g></g><path d="M89.052-48.2V0H101.14V-107.107H89.052v47.586H27.236v-47.586H15.148V0H27.236V-48.2ZM200.137-39.63a41.7,41.7,0,0,0-3.06-15.913,39.883,39.883,0,0,0-8.569-13.082A41.223,41.223,0,0,0,175.426-77.5a40.839,40.839,0,0,0-16.449-3.29,41.226,41.226,0,0,0-16.6,3.29,40.6,40.6,0,0,0-13.082,8.951,40.551,40.551,0,0,0-8.569,13.235,42.277,42.277,0,0,0-3.06,15.99,41.7,41.7,0,0,0,3.06,15.913,39.883,39.883,0,0,0,8.569,13.082A41.458,41.458,0,0,0,142.3-1.454a40.3,40.3,0,0,0,16.372,3.29A41.384,41.384,0,0,0,175.2-1.454,40.39,40.39,0,0,0,188.355-10.4,41.594,41.594,0,0,0,197-23.64,41.375,41.375,0,0,0,200.137-39.63Zm-12.088.23a33.092,33.092,0,0,1-2.142,11.98,29.806,29.806,0,0,1-5.967,9.692,27.555,27.555,0,0,1-9.181,6.487,28.836,28.836,0,0,1-11.782,2.366,27.691,27.691,0,0,1-11.629-2.442,29.408,29.408,0,0,1-9.257-6.563,29.967,29.967,0,0,1-6.12-9.769,32.682,32.682,0,0,1-2.219-12.058,33.1,33.1,0,0,1,2.142-11.981,31.449,31.449,0,0,1,5.891-9.769,26.27,26.27,0,0,1,9.1-6.563,28.836,28.836,0,0,1,11.782-2.366A27.691,27.691,0,0,1,170.3-67.942a29.718,29.718,0,0,1,9.334,6.639,30.192,30.192,0,0,1,6.2,9.844A32.68,32.68,0,0,1,188.049-39.4ZM227.373,0V-111.7H215.591V0Zm98.079-39.63a41.7,41.7,0,0,0-3.06-15.913,39.883,39.883,0,0,0-8.569-13.082A41.223,41.223,0,0,0,300.741-77.5a40.839,40.839,0,0,0-16.449-3.29,41.226,41.226,0,0,0-16.6,3.29,40.6,40.6,0,0,0-13.082,8.951,40.551,40.551,0,0,0-8.569,13.235,42.277,42.277,0,0,0-3.06,15.99,41.7,41.7,0,0,0,3.06,15.913,39.883,39.883,0,0,0,8.569,13.082,41.458,41.458,0,0,0,13.006,8.875,40.3,40.3,0,0,0,16.372,3.29,41.384,41.384,0,0,0,16.525-3.29A40.39,40.39,0,0,0,313.671-10.4a41.594,41.594,0,0,0,8.645-13.235A41.375,41.375,0,0,0,325.452-39.63Zm-12.088.23a33.092,33.092,0,0,1-2.142,11.98,29.806,29.806,0,0,1-5.967,9.692,27.555,27.555,0,0,1-9.181,6.487,28.836,28.836,0,0,1-11.782,2.366,27.691,27.691,0,0,1-11.629-2.442,29.408,29.408,0,0,1-9.257-6.563,29.968,29.968,0,0,1-6.12-9.769,32.682,32.682,0,0,1-2.219-12.058,33.1,33.1,0,0,1,2.142-11.981,31.449,31.449,0,0,1,5.891-9.769,26.27,26.27,0,0,1,9.1-6.563,28.836,28.836,0,0,1,11.782-2.366,27.691,27.691,0,0,1,11.629,2.442,29.718,29.718,0,0,1,9.334,6.639,30.192,30.192,0,0,1,6.2,9.844A32.68,32.68,0,0,1,313.364-39.4Zm106.342-.23a44.7,44.7,0,0,0-3.213-17.443A39.22,39.22,0,0,0,407.925-70a36.9,36.9,0,0,0-12.164-8.033,36.634,36.634,0,0,0-13.847-2.754,32.579,32.579,0,0,0-10.022,1.454A34.5,34.5,0,0,0,363.7-75.51a34.852,34.852,0,0,0-6.656,5.585,61.516,61.516,0,0,0-5.432,6.732V-79.106H339.835V24.482h11.782v-39.63A47.7,47.7,0,0,0,356.9-8.722a35.636,35.636,0,0,0,6.656,5.355A33.862,33.862,0,0,0,371.814.306a35.036,35.036,0,0,0,10.1,1.377,36.144,36.144,0,0,0,14-2.831A37.076,37.076,0,0,0,408-9.257a39.854,39.854,0,0,0,8.492-12.929A44.7,44.7,0,0,0,419.706-39.63Zm-12.088.153A35.284,35.284,0,0,1,405.4-26.612a28.435,28.435,0,0,1-5.967,9.592,25.234,25.234,0,0,1-8.875,5.938,28.72,28.72,0,0,1-10.787,2.055,26.616,26.616,0,0,1-10.634-2.208,30.086,30.086,0,0,1-9.181-6.166,28.7,28.7,0,0,1-6.426-9.667,32.431,32.431,0,0,1-2.372-12.561,31.867,31.867,0,0,1,2.372-12.483,28.873,28.873,0,0,1,6.426-9.592,30.086,30.086,0,0,1,9.181-6.166,26.615,26.615,0,0,1,10.634-2.208,27.259,27.259,0,0,1,10.711,2.131,26.1,26.1,0,0,1,8.875,6.166,29.673,29.673,0,0,1,6.044,9.668A34.238,34.238,0,0,1,407.619-39.477Zm38.712-5.814a28,28,0,0,1,1.76-10.1,22.8,22.8,0,0,1,4.973-7.88,21.933,21.933,0,0,1,7.574-5.049,24.91,24.91,0,0,1,9.41-1.76q10.558,0,16.219,6.426t5.661,17.443V0h11.782V-49.116a38.169,38.169,0,0,0-2.066-12.853,28.64,28.64,0,0,0-5.967-10.022,26.463,26.463,0,0,0-9.487-6.5,33.381,33.381,0,0,0-12.776-2.3q-10.252,0-16.678,4.514a37.242,37.242,0,0,0-10.4,10.94V-111.7H434.548V0H446.33ZM535.688-96.4V-109.4H522.223V-96.4ZM534.77,0V-79.106H522.988V0Zm57.991-40.548,29.99-38.559H609.592L586.181-48.5l-23.411-30.6H549.306l29.837,38.865L548.082,0h13.159l24.635-32.285L610.357,0h13.618Z" transform="translate(445.71 278.224)" fill="#fff"/></g></svg>