<svg xmlns="http://www.w3.org/2000/svg" width="160" height="37.071" viewBox="0 0 160 37.071"><g transform="translate(41.823 10.061)"><path d="M191.8,52.682a.871.871,0,1,1,1.741,0v6.083h8.916V52.682a.871.871,0,1,1,1.741,0V66.59a.871.871,0,1,1-1.741,0V60.414h-8.916V66.59a.871.871,0,1,1-1.741,0Z" transform="translate(-191.8 -51.15)" fill="#fff"/><path d="M254.7,74.613v-.046a5.955,5.955,0,0,1,11.911-.046v.046a5.926,5.926,0,0,1-5.99,5.967A5.842,5.842,0,0,1,254.7,74.613Zm10.146,0v-.046a4.314,4.314,0,0,0-4.249-4.458,4.216,4.216,0,0,0-4.179,4.411v.046A4.275,4.275,0,0,0,260.644,79,4.188,4.188,0,0,0,264.846,74.613Z" transform="translate(-240.096 -64.049)" fill="#fff"/><path d="M314.7,49.859a.848.848,0,1,1,1.695,0V64.486a.824.824,0,0,1-.836.859.843.843,0,0,1-.859-.859Z" transform="translate(-286.166 -49)" fill="#fff"/><path d="M330.9,74.613v-.046a5.955,5.955,0,0,1,11.911-.046v.046a5.926,5.926,0,0,1-5.99,5.967A5.842,5.842,0,0,1,330.9,74.613Zm10.146,0v-.046a4.314,4.314,0,0,0-4.249-4.458,4.216,4.216,0,0,0-4.179,4.411v.046A4.275,4.275,0,0,0,336.844,79,4.188,4.188,0,0,0,341.046,74.613Z" transform="translate(-298.604 -64.049)" fill="#fff"/><path d="M388.252,82.661a.754.754,0,0,1,.325-1.439.642.642,0,0,1,.371.116,7.209,7.209,0,0,0,4.04,1.231c2.508,0,4.156-1.393,4.156-4.063V77.158a5.437,5.437,0,0,1-4.481,2.415,5.268,5.268,0,0,1-5.363-5.34v-.046a5.293,5.293,0,0,1,5.363-5.386,5.374,5.374,0,0,1,4.458,2.3V69.8a.837.837,0,0,1,.836-.859.857.857,0,0,1,.859.859v8.637a5.5,5.5,0,0,1-1.463,4.04,5.97,5.97,0,0,1-4.342,1.532A8.992,8.992,0,0,1,388.252,82.661Zm8.962-8.474V74.14a3.984,3.984,0,0,0-4.2-3.854,3.776,3.776,0,0,0-3.947,3.831v.046a3.855,3.855,0,0,0,3.947,3.877A4.028,4.028,0,0,0,397.214,74.186Z" transform="translate(-341.91 -64.203)" fill="#fff"/><path d="M448.2,69.905a.852.852,0,0,1,.836-.859.843.843,0,0,1,.859.859v2.136A4.694,4.694,0,0,1,453.819,69a.811.811,0,0,1,.836.859.837.837,0,0,1-.743.859c-2.206.255-4.017,1.927-4.017,5.2V79.8a.848.848,0,1,1-1.695,0Z" transform="translate(-388.67 -64.356)" fill="#fff"/><path d="M475.5,77.419v-.046c0-2.415,2-3.692,4.876-3.692a12.378,12.378,0,0,1,3.506.488v-.395c0-2.043-1.254-3.111-3.39-3.111a6.814,6.814,0,0,0-2.949.65.909.909,0,0,1-.3.07.744.744,0,0,1-.743-.72.732.732,0,0,1,.464-.7A8.946,8.946,0,0,1,480.7,69.2a5.042,5.042,0,0,1,3.692,1.254,4.533,4.533,0,0,1,1.161,3.343v6.246a.8.8,0,0,1-.813.836.775.775,0,0,1-.813-.789V79.044a4.973,4.973,0,0,1-4.133,1.973C477.636,80.971,475.5,79.764,475.5,77.419Zm8.4-.882V75.422a12.354,12.354,0,0,0-3.367-.488c-2.136,0-3.343.929-3.343,2.368v.046c0,1.439,1.323,2.275,2.879,2.275C482.187,79.625,483.9,78.348,483.9,76.537Z" transform="translate(-409.632 -64.51)" fill="#fff"/><path d="M529.1,69.675a.848.848,0,1,1,1.695,0v1.556A5.123,5.123,0,0,1,535.16,68.7a5.567,5.567,0,0,1,5.456,5.92v.023a5.588,5.588,0,0,1-5.456,5.944,5.109,5.109,0,0,1-4.365-2.438v4.969a.824.824,0,0,1-.836.859.843.843,0,0,1-.859-.859Zm9.8,4.992V74.62a4.108,4.108,0,0,0-4.017-4.411,4.262,4.262,0,0,0-4.133,4.388v.046a4.253,4.253,0,0,0,4.133,4.411C537.087,79.078,538.9,77.43,538.9,74.667Z" transform="translate(-450.787 -64.126)" fill="#fff"/><path d="M587.1,49.859a.847.847,0,1,1,1.695,0V55.8a4.329,4.329,0,0,1,3.9-2.229c2.763,0,4.365,1.857,4.365,4.574v6.338a.848.848,0,1,1-1.695,0v-5.92c0-2.113-1.138-3.436-3.158-3.436a3.349,3.349,0,0,0-3.413,3.576v5.781a.824.824,0,0,1-.836.859.843.843,0,0,1-.859-.859Z" transform="translate(-495.321 -49)" fill="#fff"/><path d="M640.6,51.305a1.016,1.016,0,0,1,2.02,0v.279a1.016,1.016,0,0,1-2.02,0Zm.139,4.318a.852.852,0,0,1,.836-.859.843.843,0,0,1,.859.859v9.914a.824.824,0,0,1-.836.859.843.843,0,0,1-.859-.859Z" transform="translate(-536.4 -50.075)" fill="#fff"/><path d="M658.271,79.509l3.738-4.6-3.506-4.3a.876.876,0,0,1-.255-.627.756.756,0,0,1,.789-.789.923.923,0,0,1,.743.395l3.3,4.179,3.274-4.156a.979.979,0,0,1,.72-.418.744.744,0,0,1,.766.766.811.811,0,0,1-.232.557l-3.552,4.342,3.715,4.551a.957.957,0,0,1,.232.627.769.769,0,0,1-.789.789.923.923,0,0,1-.743-.395l-3.459-4.388-3.436,4.365a.979.979,0,0,1-.72.418.758.758,0,0,1-.766-.766A.713.713,0,0,1,658.271,79.509Z" transform="translate(-549.822 -64.51)" fill="#fff"/></g><g transform="translate(9.57 6.681)"><path d="M56.962,34.442a.554.554,0,0,1,.549.571l-.046,22.568a.558.558,0,0,1-.557.558.574.574,0,0,1-.227-.047l-.012-.005-3.509-1.848-.014-.009a.574.574,0,0,1-.263-.483V37.125a.7.7,0,0,1,.148-.391l.041-.062,3.6-2.157.011-.006A.613.613,0,0,1,56.962,34.442Zm-.156,22.973.046-22.239-3.312,1.983V55.7Z" transform="translate(-52.883 -34.442)" fill="#fff"/><path d="M56.954,58.352,53.527,56.58a2.137,2.137,0,0,1-.363-.237.408.408,0,0,1-.129-.405l0-.014v-.2L56.6,53.839l-3.192-2a.341.341,0,0,1-.178-.182.36.36,0,0,1,.088-.4l.027-.027,7.3-4.536-7.236-4.611a.341.341,0,0,1-.177-.181.36.36,0,0,1,.088-.4l.027-.027,3.217-1.992-3.152-1.952a.341.341,0,0,1-.18-.183.36.36,0,0,1,.088-.4l.027-.027,3.445-2.133.346.56-3,1.856L57.357,39.2l.027.027a.36.36,0,0,1,.088.4.341.341,0,0,1-.18.183l-3.158,1.956,6.95,4.429a.59.59,0,0,1,0,1l-6.946,4.316L57.1,53.375a.568.568,0,0,1,0,.942l-.014.009-3.206,1.7,3.374,1.744Z" transform="translate(-52.991 -34.713)" fill="#fff"/><path d="M57.47,79.956l-3.741-2.525-.022-.022a.486.486,0,0,1-.146-.39.443.443,0,0,1,.2-.325l.01-.006,3.725-2.119.325.572-3.422,1.946,3.443,2.324Z" transform="translate(-53.401 -65.252)" fill="#fff"/><g transform="translate(9.592)"><path d="M110.541,34.442h0a.57.57,0,0,1,.282.076l.006,0,3.593,2.151.041.062a.7.7,0,0,1,.148.391v18.62a.574.574,0,0,1-.263.483l-.014.009-3.509,1.848-.012.005a.574.574,0,0,1-.227.047.558.558,0,0,1-.557-.559l-.046-22.567a.573.573,0,0,1,.163-.4A.55.55,0,0,1,110.541,34.442Zm3.412,2.717-3.312-1.983.046,22.239,3.266-1.72Z" transform="translate(-106.317 -34.442)" fill="#fff"/><path d="M98.6,58.4l-.3-.585,3.374-1.744-3.206-1.7-.014-.009a.568.568,0,0,1,0-.942l.008,0,2.957-1.856-6.958-4.325a.607.607,0,0,1-.26-.526.562.562,0,0,1,.27-.47l6.972-4.451L98.25,39.824a.357.357,0,0,1-.139-.517.345.345,0,0,1,.14-.121l3.158-1.976-3.043-1.858.343-.562,3.435,2.1a.355.355,0,0,1,0,.636L98.985,39.5l3.183,1.959a.355.355,0,0,1,0,.635L94.9,46.737l7.242,4.5a.355.355,0,0,1,0,.635l-3.2,2.009,3.565,1.887v.2l0,.014a.408.408,0,0,1-.129.405,2.138,2.138,0,0,1-.363.237l-.014.008Z" transform="translate(-94.194 -34.71)" fill="#fff"/><path d="M111.275,79.956l-.368-.545,3.443-2.324-3.422-1.946.325-.572,3.725,2.119.01.006a.443.443,0,0,1,.2.325.486.486,0,0,1-.146.39l-.022.022Z" transform="translate(-107.027 -65.252)" fill="#fff"/></g></g><path d="M15.7-2.835A18.536,18.536,0,1,1-2.835,15.7,18.557,18.557,0,0,1,15.7-2.835Zm0,35.755A17.219,17.219,0,1,0-1.518,15.7,17.239,17.239,0,0,0,15.7,32.92Z" transform="translate(2.835 2.835)" fill="#fff"/></svg>