<?xml version="1.0" encoding="utf-8"?>
<!-- Generator: Adobe Illustrator 26.2.1, SVG Export Plug-In . SVG Version: 6.00 Build 0)  -->
<svg version="1.1" id="Capa_1" xmlns="http://www.w3.org/2000/svg" xmlns:xlink="http://www.w3.org/1999/xlink" x="0px" y="0px"
	 viewBox="0 0 37.1 37.1" style="enable-background:new 0 0 37.1 37.1;" xml:space="preserve">
<style type="text/css">
	.st0{fill:#FFFFFF;}
</style>
<g transform="translate(9.57 6.681)">
	<path class="st0" d="M4.1,0c0.3,0,0.6,0.3,0.5,0.6c0,0,0,0,0,0l0,22.6c0,0.3-0.2,0.6-0.6,0.6c-0.1,0-0.2,0-0.2,0l0,0l-3.5-1.8l0,0
		C0.1,21.7,0,21.5,0,21.3V2.7c0-0.1,0.1-0.3,0.1-0.4l0-0.1l3.6-2.2l0,0C3.9,0,4,0,4.1,0z M3.9,23L4,0.7l-3.3,2v18.5L3.9,23z"/>
	<path class="st0" d="M4,23.6l-3.4-1.8c-0.1-0.1-0.3-0.1-0.4-0.2C0.1,21.5,0,21.4,0,21.2v0V21l3.6-1.9l-3.2-2
		c-0.1,0-0.1-0.1-0.2-0.2c-0.1-0.1,0-0.3,0.1-0.4l0,0L7.7,12L0.4,7.4c-0.1,0-0.1-0.1-0.2-0.2c-0.1-0.1,0-0.3,0.1-0.4l0,0l3.2-2
		l-3.2-2c-0.1,0-0.1-0.1-0.2-0.2c-0.1-0.1,0-0.3,0.1-0.4l0,0l3.4-2.1l0.3,0.6l-3,1.9l3.2,2l0,0c0.1,0.1,0.1,0.3,0.1,0.4
		c0,0.1-0.1,0.1-0.2,0.2l-3.2,2l7,4.4c0.3,0.2,0.4,0.5,0.2,0.8c0,0.1-0.1,0.1-0.2,0.2l-6.9,4.3l3,1.9c0.3,0.2,0.3,0.5,0.2,0.8
		c0,0.1-0.1,0.1-0.2,0.2l0,0l-3.2,1.7l3.4,1.7L4,23.6z"/>
	<path class="st0" d="M4.1,14.7l-3.7-2.5l0,0c-0.1-0.1-0.2-0.2-0.1-0.4c0-0.1,0.1-0.3,0.2-0.3l0,0l3.7-2.1l0.3,0.6L1,11.8l3.4,2.3
		L4.1,14.7z"/>
	<g transform="translate(9.592)">
		<path class="st0" d="M4.2,0L4.2,0c0.1,0,0.2,0,0.3,0.1h0l3.6,2.2l0,0.1c0.1,0.1,0.1,0.2,0.1,0.4v18.6c0,0.2-0.1,0.4-0.3,0.5l0,0
			l-3.5,1.8l0,0c-0.1,0-0.1,0-0.2,0c-0.3,0-0.6-0.3-0.6-0.6v0l0-22.6c0-0.1,0.1-0.3,0.2-0.4C3.9,0.1,4.1,0,4.2,0z M7.6,2.7l-3.3-2
			l0,22.2l3.3-1.7V2.7z"/>
		<path class="st0" d="M4.4,23.7l-0.3-0.6l3.4-1.7l-3.2-1.7l0,0c-0.3-0.2-0.3-0.5-0.2-0.8c0-0.1,0.1-0.1,0.2-0.2h0l3-1.9l-7-4.3
			C0.1,12.4,0,12.2,0,12c0-0.2,0.1-0.4,0.3-0.5l7-4.5l-3.2-2C3.9,5,3.8,4.8,3.9,4.6c0,0,0,0,0,0C4,4.5,4,4.5,4.1,4.5l3.2-2l-3-1.9
			l0.3-0.6l3.4,2.1c0.2,0.1,0.2,0.3,0.2,0.5c0,0.1-0.1,0.1-0.2,0.2l-3.2,2l3.2,2C8.1,6.8,8.2,7,8.1,7.2C8.1,7.3,8,7.3,8,7.4L0.7,12
			l7.2,4.5c0.2,0.1,0.2,0.3,0.2,0.5c0,0.1-0.1,0.1-0.2,0.2l-3.2,2l3.6,1.9v0.2v0c0,0.1,0,0.3-0.1,0.4c-0.1,0.1-0.2,0.2-0.4,0.2l0,0
			L4.4,23.7z"/>
		<path class="st0" d="M4.2,14.7l-0.4-0.5l3.4-2.3L3.9,9.9l0.3-0.6L8,11.4l0,0c0.1,0.1,0.2,0.2,0.2,0.3c0,0.1,0,0.3-0.1,0.4l0,0
			L4.2,14.7z"/>
	</g>
</g>
<path class="st0" d="M18.5,0c10.2,0,18.5,8.3,18.5,18.5s-8.3,18.5-18.5,18.5S0,28.8,0,18.5c0,0,0,0,0,0C0,8.3,8.3,0,18.5,0z
	 M18.5,35.8c9.5,0,17.2-7.7,17.2-17.2C35.8,9,28,1.3,18.5,1.3S1.3,9,1.3,18.5C1.3,28,9,35.7,18.5,35.8z"/>
</svg>
